<svg width="591" height="645" viewBox="0 0 591 645" fill="none" xmlns="http://www.w3.org/2000/svg">
<path d="M343.071 74.7263C319.071 34.7263 245.171 -29.8737 141.571 31.7263C12.0714 108.726 33.5714 239.226 35.5714 258.726C37.5714 278.226 44.0714 377.226 163.071 437.226C217.471 460.426 279.738 440.56 304.071 427.726V239.226L275.571 208.226H590.071V265.226C588.071 249.393 572.671 217.726 527.071 217.726H334.571V420.226C360.405 406.06 422.171 380.926 462.571 393.726C502.971 406.526 528.738 439.393 536.571 454.226C511.738 422.726 448.571 377.226 334.571 441.226V596.226C334.571 617.226 334.571 636.226 367.571 644.226H271.571C282.405 641.56 304.071 628.226 304.071 596.226V448.226C280.405 459.06 216.071 475.426 148.071 454.226C63.0714 427.726 4.07145 301.726 0.571448 244.226C-2.92855 186.726 8.07145 118.726 78.0714 51.7263C147.753 -14.9689 237.749 -0.903989 285.914 6.62347L286.572 6.72627C305.772 9.92627 332.238 28.3929 343.071 37.2263V74.7263Z" fill="#F1EDCB"/>
</svg>
